<mxfile host="app.diagrams.net" agent="Mozilla/5.0 (Windows NT 10.0; Win64; x64) AppleWebKit/537.36 (KHTML, like Gecko) Chrome/131.0.0.0 Safari/537.36" version="26.0.5">
  <diagram name="Strona-1" id="fgU5ulpv1b7WvcS9dqAW">
    <mxGraphModel dx="2074" dy="1132" grid="1" gridSize="10" guides="1" tooltips="1" connect="1" arrows="1" fold="1" page="1" pageScale="1" pageWidth="827" pageHeight="1169" math="0" shadow="0">
      <root>
        <mxCell id="0" />
        <mxCell id="1" parent="0" />
        <mxCell id="whcsbTW-i5qFt0smelnw-29" style="edgeStyle=orthogonalEdgeStyle;rounded=0;orthogonalLoop=1;jettySize=auto;html=1;exitX=0.25;exitY=1;exitDx=0;exitDy=0;entryX=0.25;entryY=0;entryDx=0;entryDy=0;fillColor=#d5e8d4;strokeColor=#82b366;strokeWidth=2;" parent="1" source="_shEbpTUIyo-8CSlQiM0-3" target="whcsbTW-i5qFt0smelnw-2" edge="1">
          <mxGeometry relative="1" as="geometry">
            <mxPoint x="140" y="150" as="sourcePoint" />
          </mxGeometry>
        </mxCell>
        <mxCell id="whcsbTW-i5qFt0smelnw-16" style="edgeStyle=orthogonalEdgeStyle;rounded=0;orthogonalLoop=1;jettySize=auto;html=1;exitX=0.5;exitY=1;exitDx=0;exitDy=0;entryX=0;entryY=0.5;entryDx=0;entryDy=0;strokeWidth=2;fillColor=#ffe6cc;strokeColor=#d79b00;" parent="1" source="whcsbTW-i5qFt0smelnw-2" target="whcsbTW-i5qFt0smelnw-5" edge="1">
          <mxGeometry relative="1" as="geometry">
            <Array as="points">
              <mxPoint x="170" y="290" />
            </Array>
          </mxGeometry>
        </mxCell>
        <mxCell id="whcsbTW-i5qFt0smelnw-2" value="Rejestracja" style="rounded=0;whiteSpace=wrap;html=1;fillColor=#f8cecc;strokeColor=#b85450;" parent="1" vertex="1">
          <mxGeometry x="110" y="200" width="120" height="60" as="geometry" />
        </mxCell>
        <mxCell id="whcsbTW-i5qFt0smelnw-3" value="" style="endArrow=classic;html=1;rounded=0;exitX=0.5;exitY=1;exitDx=0;exitDy=0;entryX=0.5;entryY=0;entryDx=0;entryDy=0;fillColor=#ffe6cc;strokeColor=#d79b00;strokeWidth=2;" parent="1" source="_shEbpTUIyo-8CSlQiM0-3" target="whcsbTW-i5qFt0smelnw-2" edge="1">
          <mxGeometry width="50" height="50" relative="1" as="geometry">
            <mxPoint x="170" y="150" as="sourcePoint" />
            <mxPoint x="440" y="370" as="targetPoint" />
          </mxGeometry>
        </mxCell>
        <mxCell id="whcsbTW-i5qFt0smelnw-20" style="edgeStyle=orthogonalEdgeStyle;rounded=0;orthogonalLoop=1;jettySize=auto;html=1;exitX=0.75;exitY=1;exitDx=0;exitDy=0;entryX=0.5;entryY=0;entryDx=0;entryDy=0;strokeWidth=2;fillColor=#ffe6cc;strokeColor=#d79b00;" parent="1" source="whcsbTW-i5qFt0smelnw-5" target="whcsbTW-i5qFt0smelnw-8" edge="1">
          <mxGeometry relative="1" as="geometry" />
        </mxCell>
        <mxCell id="whcsbTW-i5qFt0smelnw-21" style="edgeStyle=orthogonalEdgeStyle;rounded=0;orthogonalLoop=1;jettySize=auto;html=1;exitX=0.5;exitY=1;exitDx=0;exitDy=0;entryX=0.5;entryY=0;entryDx=0;entryDy=0;strokeWidth=2;fillColor=#f8cecc;strokeColor=#b85450;" parent="1" source="whcsbTW-i5qFt0smelnw-5" target="whcsbTW-i5qFt0smelnw-9" edge="1">
          <mxGeometry relative="1" as="geometry">
            <Array as="points">
              <mxPoint x="340" y="370" />
              <mxPoint x="340" y="370" />
            </Array>
          </mxGeometry>
        </mxCell>
        <mxCell id="whcsbTW-i5qFt0smelnw-22" style="edgeStyle=orthogonalEdgeStyle;rounded=0;orthogonalLoop=1;jettySize=auto;html=1;exitX=0.25;exitY=1;exitDx=0;exitDy=0;entryX=0.25;entryY=0;entryDx=0;entryDy=0;strokeWidth=2;fillColor=#d5e8d4;strokeColor=#82b366;" parent="1" source="whcsbTW-i5qFt0smelnw-5" target="_shEbpTUIyo-8CSlQiM0-2" edge="1">
          <mxGeometry relative="1" as="geometry">
            <Array as="points">
              <mxPoint x="310" y="330" />
              <mxPoint x="140" y="330" />
            </Array>
          </mxGeometry>
        </mxCell>
        <mxCell id="whcsbTW-i5qFt0smelnw-5" value="Izba przyjęcia" style="rounded=0;whiteSpace=wrap;html=1;fillColor=#e1d5e7;strokeColor=#9673a6;" parent="1" vertex="1">
          <mxGeometry x="280" y="260" width="120" height="60" as="geometry" />
        </mxCell>
        <mxCell id="whcsbTW-i5qFt0smelnw-7" value="OUT" style="rounded=0;whiteSpace=wrap;html=1;fillColor=#bac8d3;strokeColor=#23445d;" parent="1" vertex="1">
          <mxGeometry x="600" y="250" width="120" height="70" as="geometry" />
        </mxCell>
        <mxCell id="whcsbTW-i5qFt0smelnw-23" style="edgeStyle=orthogonalEdgeStyle;rounded=0;orthogonalLoop=1;jettySize=auto;html=1;exitX=0.5;exitY=1;exitDx=0;exitDy=0;entryX=1;entryY=0.5;entryDx=0;entryDy=0;strokeWidth=2;fillColor=#ffe6cc;strokeColor=#d79b00;" parent="1" source="whcsbTW-i5qFt0smelnw-8" target="whcsbTW-i5qFt0smelnw-9" edge="1">
          <mxGeometry relative="1" as="geometry" />
        </mxCell>
        <mxCell id="sOwrhF51wG5BLlXzD2gl-3" style="edgeStyle=orthogonalEdgeStyle;rounded=0;orthogonalLoop=1;jettySize=auto;html=1;strokeWidth=2;fillColor=#ffe6cc;strokeColor=#d79b00;" parent="1" source="whcsbTW-i5qFt0smelnw-8" edge="1">
          <mxGeometry relative="1" as="geometry">
            <mxPoint x="560" y="480" as="targetPoint" />
          </mxGeometry>
        </mxCell>
        <mxCell id="whcsbTW-i5qFt0smelnw-8" value="Odział gineklogiczny" style="rounded=0;whiteSpace=wrap;html=1;fillColor=#fff2cc;strokeColor=#d6b656;" parent="1" vertex="1">
          <mxGeometry x="414" y="450" width="120" height="60" as="geometry" />
        </mxCell>
        <mxCell id="whcsbTW-i5qFt0smelnw-24" style="edgeStyle=orthogonalEdgeStyle;rounded=0;orthogonalLoop=1;jettySize=auto;html=1;exitX=0.25;exitY=1;exitDx=0;exitDy=0;entryX=0.25;entryY=0;entryDx=0;entryDy=0;fillColor=#f8cecc;strokeColor=#b85450;strokeWidth=2;" parent="1" source="whcsbTW-i5qFt0smelnw-9" target="whcsbTW-i5qFt0smelnw-11" edge="1">
          <mxGeometry relative="1" as="geometry" />
        </mxCell>
        <mxCell id="whcsbTW-i5qFt0smelnw-25" style="edgeStyle=orthogonalEdgeStyle;rounded=0;orthogonalLoop=1;jettySize=auto;html=1;exitX=0.5;exitY=1;exitDx=0;exitDy=0;entryX=0.5;entryY=0;entryDx=0;entryDy=0;strokeWidth=2;fillColor=#d5e8d4;strokeColor=#82b366;" parent="1" source="whcsbTW-i5qFt0smelnw-9" target="whcsbTW-i5qFt0smelnw-10" edge="1">
          <mxGeometry relative="1" as="geometry" />
        </mxCell>
        <mxCell id="whcsbTW-i5qFt0smelnw-9" value="Porodówka" style="rounded=0;whiteSpace=wrap;html=1;fillColor=#e1d5e7;strokeColor=#9673a6;" parent="1" vertex="1">
          <mxGeometry x="280" y="520" width="120" height="60" as="geometry" />
        </mxCell>
        <mxCell id="whcsbTW-i5qFt0smelnw-28" style="edgeStyle=orthogonalEdgeStyle;rounded=0;orthogonalLoop=1;jettySize=auto;html=1;exitX=0.5;exitY=1;exitDx=0;exitDy=0;strokeWidth=2;fillColor=#d5e8d4;strokeColor=#82b366;entryX=0.793;entryY=0.02;entryDx=0;entryDy=0;entryPerimeter=0;" parent="1" source="whcsbTW-i5qFt0smelnw-10" target="whcsbTW-i5qFt0smelnw-12" edge="1">
          <mxGeometry relative="1" as="geometry">
            <mxPoint x="340" y="758" as="targetPoint" />
          </mxGeometry>
        </mxCell>
        <mxCell id="whcsbTW-i5qFt0smelnw-54" style="edgeStyle=orthogonalEdgeStyle;rounded=0;orthogonalLoop=1;jettySize=auto;html=1;exitX=0.25;exitY=1;exitDx=0;exitDy=0;entryX=0.69;entryY=0;entryDx=0;entryDy=0;strokeWidth=2;fillColor=#ffe6cc;strokeColor=#d79b00;entryPerimeter=0;" parent="1" source="whcsbTW-i5qFt0smelnw-10" target="whcsbTW-i5qFt0smelnw-12" edge="1">
          <mxGeometry relative="1" as="geometry">
            <mxPoint x="200" y="760" as="targetPoint" />
          </mxGeometry>
        </mxCell>
        <mxCell id="whcsbTW-i5qFt0smelnw-10" value="Sala poporodowa" style="rounded=0;whiteSpace=wrap;html=1;fillColor=#f8cecc;strokeColor=#b85450;" parent="1" vertex="1">
          <mxGeometry x="280" y="640" width="120" height="60" as="geometry" />
        </mxCell>
        <mxCell id="whcsbTW-i5qFt0smelnw-26" style="edgeStyle=orthogonalEdgeStyle;rounded=0;orthogonalLoop=1;jettySize=auto;html=1;entryX=0.25;entryY=0;entryDx=0;entryDy=0;strokeWidth=2;fillColor=#ffe6cc;strokeColor=#d79b00;" parent="1" edge="1">
          <mxGeometry relative="1" as="geometry">
            <mxPoint x="140" y="730" as="sourcePoint" />
            <mxPoint x="140" y="760" as="targetPoint" />
          </mxGeometry>
        </mxCell>
        <mxCell id="whcsbTW-i5qFt0smelnw-36" style="edgeStyle=orthogonalEdgeStyle;rounded=0;orthogonalLoop=1;jettySize=auto;html=1;exitX=0.25;exitY=1;exitDx=0;exitDy=0;strokeWidth=2;fillColor=#f8cecc;strokeColor=#b85450;" parent="1" source="whcsbTW-i5qFt0smelnw-11" edge="1">
          <mxGeometry relative="1" as="geometry">
            <mxPoint x="140" y="730" as="targetPoint" />
          </mxGeometry>
        </mxCell>
        <mxCell id="whcsbTW-i5qFt0smelnw-39" style="edgeStyle=orthogonalEdgeStyle;rounded=0;orthogonalLoop=1;jettySize=auto;html=1;exitX=1;exitY=0.5;exitDx=0;exitDy=0;strokeWidth=2;fillColor=#f8cecc;strokeColor=#b85450;" parent="1" source="whcsbTW-i5qFt0smelnw-11" edge="1">
          <mxGeometry relative="1" as="geometry">
            <mxPoint x="260" y="670" as="targetPoint" />
          </mxGeometry>
        </mxCell>
        <mxCell id="whcsbTW-i5qFt0smelnw-11" value="OIOM" style="rounded=0;whiteSpace=wrap;html=1;fillColor=#fff2cc;strokeColor=#d6b656;" parent="1" vertex="1">
          <mxGeometry x="110" y="640" width="120" height="60" as="geometry" />
        </mxCell>
        <mxCell id="whcsbTW-i5qFt0smelnw-12" value="OUT" style="rounded=0;whiteSpace=wrap;html=1;fillColor=#bac8d3;strokeColor=#23445d;" parent="1" vertex="1">
          <mxGeometry x="110" y="760" width="290" height="50" as="geometry" />
        </mxCell>
        <mxCell id="whcsbTW-i5qFt0smelnw-15" value="" style="endArrow=classic;html=1;rounded=0;exitX=0.25;exitY=1;exitDx=0;exitDy=0;entryX=0;entryY=0.75;entryDx=0;entryDy=0;fillColor=#d5e8d4;strokeColor=#82b366;strokeWidth=2;" parent="1" source="whcsbTW-i5qFt0smelnw-2" target="whcsbTW-i5qFt0smelnw-5" edge="1">
          <mxGeometry width="50" height="50" relative="1" as="geometry">
            <mxPoint x="390" y="420" as="sourcePoint" />
            <mxPoint x="140" y="320" as="targetPoint" />
            <Array as="points">
              <mxPoint x="140" y="305" />
            </Array>
          </mxGeometry>
        </mxCell>
        <mxCell id="whcsbTW-i5qFt0smelnw-31" value="" style="endArrow=classic;html=1;rounded=0;strokeWidth=2;fillColor=#d5e8d4;strokeColor=#82b366;" parent="1" edge="1">
          <mxGeometry width="50" height="50" relative="1" as="geometry">
            <mxPoint x="260" y="670" as="sourcePoint" />
            <mxPoint x="280" y="670" as="targetPoint" />
          </mxGeometry>
        </mxCell>
        <mxCell id="whcsbTW-i5qFt0smelnw-32" value="" style="endArrow=classic;html=1;rounded=0;exitX=0.75;exitY=1;exitDx=0;exitDy=0;entryX=0.75;entryY=0;entryDx=0;entryDy=0;strokeWidth=2;fillColor=#ffe6cc;strokeColor=#d79b00;" parent="1" source="whcsbTW-i5qFt0smelnw-9" target="whcsbTW-i5qFt0smelnw-10" edge="1">
          <mxGeometry width="50" height="50" relative="1" as="geometry">
            <mxPoint x="390" y="620" as="sourcePoint" />
            <mxPoint x="370" y="630" as="targetPoint" />
          </mxGeometry>
        </mxCell>
        <mxCell id="whcsbTW-i5qFt0smelnw-43" style="edgeStyle=orthogonalEdgeStyle;rounded=0;orthogonalLoop=1;jettySize=auto;html=1;exitX=1;exitY=0.25;exitDx=0;exitDy=0;strokeWidth=2;fillColor=#d5e8d4;strokeColor=#82b366;entryX=0;entryY=0.5;entryDx=0;entryDy=0;" parent="1" edge="1">
          <mxGeometry relative="1" as="geometry">
            <mxPoint x="600" y="274.74" as="targetPoint" />
            <mxPoint x="400" y="274.74" as="sourcePoint" />
          </mxGeometry>
        </mxCell>
        <mxCell id="whcsbTW-i5qFt0smelnw-47" value="FIFO" style="text;html=1;align=center;verticalAlign=middle;resizable=0;points=[];autosize=1;strokeColor=none;fillColor=none;" parent="1" vertex="1">
          <mxGeometry x="180" y="200" width="50" height="30" as="geometry" />
        </mxCell>
        <mxCell id="whcsbTW-i5qFt0smelnw-48" value="FIFO" style="text;html=1;align=center;verticalAlign=middle;resizable=0;points=[];autosize=1;strokeColor=none;fillColor=none;" parent="1" vertex="1">
          <mxGeometry x="350" y="640" width="50" height="30" as="geometry" />
        </mxCell>
        <mxCell id="whcsbTW-i5qFt0smelnw-49" value="FIFO + PR" style="text;html=1;align=center;verticalAlign=middle;resizable=0;points=[];autosize=1;strokeColor=none;fillColor=none;" parent="1" vertex="1">
          <mxGeometry x="320" y="520" width="80" height="30" as="geometry" />
        </mxCell>
        <mxCell id="whcsbTW-i5qFt0smelnw-51" value="FIFO + PR" style="text;html=1;align=center;verticalAlign=middle;resizable=0;points=[];autosize=1;strokeColor=none;fillColor=none;" parent="1" vertex="1">
          <mxGeometry x="320" y="260" width="80" height="30" as="geometry" />
        </mxCell>
        <mxCell id="whcsbTW-i5qFt0smelnw-52" value="IS" style="text;html=1;align=center;verticalAlign=middle;resizable=0;points=[];autosize=1;strokeColor=none;fillColor=none;" parent="1" vertex="1">
          <mxGeometry x="504" y="450" width="30" height="30" as="geometry" />
        </mxCell>
        <mxCell id="whcsbTW-i5qFt0smelnw-53" value="IS" style="text;html=1;align=center;verticalAlign=middle;resizable=0;points=[];autosize=1;strokeColor=none;fillColor=none;" parent="1" vertex="1">
          <mxGeometry x="200" y="640" width="30" height="30" as="geometry" />
        </mxCell>
        <mxCell id="sOwrhF51wG5BLlXzD2gl-5" value="" style="endArrow=classic;html=1;rounded=0;entryX=0;entryY=0.75;entryDx=0;entryDy=0;strokeWidth=2;fillColor=#d5e8d4;strokeColor=#82b366;" parent="1" target="whcsbTW-i5qFt0smelnw-7" edge="1">
          <mxGeometry width="50" height="50" relative="1" as="geometry">
            <mxPoint x="560" y="480" as="sourcePoint" />
            <mxPoint x="610" y="480" as="targetPoint" />
            <Array as="points">
              <mxPoint x="560" y="303" />
            </Array>
          </mxGeometry>
        </mxCell>
        <mxCell id="sOwrhF51wG5BLlXzD2gl-6" value="" style="endArrow=classic;html=1;rounded=0;entryX=0.629;entryY=-0.033;entryDx=0;entryDy=0;entryPerimeter=0;fillColor=#ffe6cc;strokeColor=#d79b00;strokeWidth=2;" parent="1" target="whcsbTW-i5qFt0smelnw-49" edge="1">
          <mxGeometry width="50" height="50" relative="1" as="geometry">
            <mxPoint x="370" y="380" as="sourcePoint" />
            <mxPoint x="534" y="560" as="targetPoint" />
          </mxGeometry>
        </mxCell>
        <mxCell id="sOwrhF51wG5BLlXzD2gl-7" value="0.2" style="text;html=1;align=center;verticalAlign=middle;resizable=0;points=[];autosize=1;strokeColor=none;fillColor=none;" parent="1" vertex="1">
          <mxGeometry x="340" y="410" width="40" height="30" as="geometry" />
        </mxCell>
        <mxCell id="sOwrhF51wG5BLlXzD2gl-12" value="0.4" style="text;html=1;align=center;verticalAlign=middle;resizable=0;points=[];autosize=1;strokeColor=none;fillColor=none;" parent="1" vertex="1">
          <mxGeometry x="400" y="360" width="40" height="30" as="geometry" />
        </mxCell>
        <mxCell id="sOwrhF51wG5BLlXzD2gl-13" value="0.9" style="text;html=1;align=center;verticalAlign=middle;resizable=0;points=[];autosize=1;strokeColor=none;fillColor=none;" parent="1" vertex="1">
          <mxGeometry x="425" y="530" width="40" height="30" as="geometry" />
        </mxCell>
        <mxCell id="sOwrhF51wG5BLlXzD2gl-14" value="0.1" style="text;html=1;align=center;verticalAlign=middle;resizable=0;points=[];autosize=1;strokeColor=none;fillColor=none;" parent="1" vertex="1">
          <mxGeometry x="534" y="480" width="40" height="30" as="geometry" />
        </mxCell>
        <mxCell id="sOwrhF51wG5BLlXzD2gl-15" value="0.75" style="text;html=1;align=center;verticalAlign=middle;resizable=0;points=[];autosize=1;strokeColor=none;fillColor=none;" parent="1" vertex="1">
          <mxGeometry x="170" y="310" width="50" height="30" as="geometry" />
        </mxCell>
        <mxCell id="sOwrhF51wG5BLlXzD2gl-16" value="1" style="text;html=1;align=center;verticalAlign=middle;resizable=0;points=[];autosize=1;strokeColor=none;fillColor=none;" parent="1" vertex="1">
          <mxGeometry x="320" y="410" width="30" height="30" as="geometry" />
        </mxCell>
        <mxCell id="sOwrhF51wG5BLlXzD2gl-25" style="edgeStyle=orthogonalEdgeStyle;rounded=0;orthogonalLoop=1;jettySize=auto;html=1;exitX=0.25;exitY=1;exitDx=0;exitDy=0;fillColor=#f8cecc;strokeColor=#b85450;strokeWidth=2;" parent="1" source="sOwrhF51wG5BLlXzD2gl-19" edge="1">
          <mxGeometry relative="1" as="geometry">
            <mxPoint x="951" y="720" as="targetPoint" />
          </mxGeometry>
        </mxCell>
        <mxCell id="sOwrhF51wG5BLlXzD2gl-39" style="edgeStyle=orthogonalEdgeStyle;rounded=0;orthogonalLoop=1;jettySize=auto;html=1;exitX=0.5;exitY=1;exitDx=0;exitDy=0;fillColor=#ffe6cc;strokeColor=#d79b00;strokeWidth=2;" parent="1" source="sOwrhF51wG5BLlXzD2gl-19" edge="1">
          <mxGeometry relative="1" as="geometry">
            <mxPoint x="1001" y="700" as="targetPoint" />
          </mxGeometry>
        </mxCell>
        <mxCell id="sOwrhF51wG5BLlXzD2gl-40" style="edgeStyle=orthogonalEdgeStyle;rounded=0;orthogonalLoop=1;jettySize=auto;html=1;exitX=0.75;exitY=1;exitDx=0;exitDy=0;fillColor=#d5e8d4;strokeColor=#82b366;strokeWidth=2;" parent="1" source="sOwrhF51wG5BLlXzD2gl-19" edge="1">
          <mxGeometry relative="1" as="geometry">
            <mxPoint x="1050.888888888889" y="670" as="targetPoint" />
          </mxGeometry>
        </mxCell>
        <mxCell id="sOwrhF51wG5BLlXzD2gl-19" value="Porodówka" style="rounded=0;whiteSpace=wrap;html=1;fillColor=#e1d5e7;strokeColor=#9673a6;" parent="1" vertex="1">
          <mxGeometry x="901" y="550" width="200" height="100" as="geometry" />
        </mxCell>
        <mxCell id="sOwrhF51wG5BLlXzD2gl-55" value="" style="edgeStyle=orthogonalEdgeStyle;rounded=0;orthogonalLoop=1;jettySize=auto;html=1;fillColor=#f8cecc;strokeColor=#b85450;strokeWidth=2;" parent="1" source="sOwrhF51wG5BLlXzD2gl-20" edge="1">
          <mxGeometry relative="1" as="geometry">
            <mxPoint x="730" y="890" as="targetPoint" />
          </mxGeometry>
        </mxCell>
        <mxCell id="sOwrhF51wG5BLlXzD2gl-58" style="edgeStyle=orthogonalEdgeStyle;rounded=0;orthogonalLoop=1;jettySize=auto;html=1;exitX=1;exitY=0.5;exitDx=0;exitDy=0;fillColor=#f8cecc;strokeColor=#b85450;strokeWidth=2;" parent="1" source="sOwrhF51wG5BLlXzD2gl-20" edge="1">
          <mxGeometry relative="1" as="geometry">
            <mxPoint x="860" y="790" as="targetPoint" />
          </mxGeometry>
        </mxCell>
        <mxCell id="sOwrhF51wG5BLlXzD2gl-20" value="OIOM" style="rounded=0;whiteSpace=wrap;html=1;fillColor=#fff2cc;strokeColor=#d6b656;" parent="1" vertex="1">
          <mxGeometry x="630" y="740" width="200" height="100" as="geometry" />
        </mxCell>
        <mxCell id="sOwrhF51wG5BLlXzD2gl-21" value="OUT" style="rounded=0;whiteSpace=wrap;html=1;fillColor=#bac8d3;strokeColor=#23445d;" parent="1" vertex="1">
          <mxGeometry x="630" y="940" width="480" height="60" as="geometry" />
        </mxCell>
        <mxCell id="sOwrhF51wG5BLlXzD2gl-63" style="edgeStyle=orthogonalEdgeStyle;rounded=0;orthogonalLoop=1;jettySize=auto;html=1;exitX=0.5;exitY=1;exitDx=0;exitDy=0;strokeWidth=2;fillColor=#d5e8d4;strokeColor=#82b366;" parent="1" source="sOwrhF51wG5BLlXzD2gl-23" edge="1">
          <mxGeometry relative="1" as="geometry">
            <mxPoint x="1001" y="940" as="targetPoint" />
          </mxGeometry>
        </mxCell>
        <mxCell id="_shEbpTUIyo-8CSlQiM0-23" style="edgeStyle=orthogonalEdgeStyle;rounded=0;orthogonalLoop=1;jettySize=auto;html=1;exitX=0.25;exitY=1;exitDx=0;exitDy=0;entryX=0.5;entryY=0;entryDx=0;entryDy=0;fillColor=#ffe6cc;strokeColor=#d79b00;strokeWidth=2;" edge="1" parent="1" source="sOwrhF51wG5BLlXzD2gl-23" target="sOwrhF51wG5BLlXzD2gl-21">
          <mxGeometry relative="1" as="geometry" />
        </mxCell>
        <mxCell id="sOwrhF51wG5BLlXzD2gl-23" value="Sala poporodowa" style="rounded=0;whiteSpace=wrap;html=1;fillColor=#f8cecc;strokeColor=#b85450;" parent="1" vertex="1">
          <mxGeometry x="901" y="740" width="200" height="100" as="geometry" />
        </mxCell>
        <mxCell id="sOwrhF51wG5BLlXzD2gl-31" value="" style="endArrow=classic;html=1;rounded=0;fillColor=#f8cecc;strokeColor=#b85450;entryX=0.75;entryY=0;entryDx=0;entryDy=0;strokeWidth=2;" parent="1" target="sOwrhF51wG5BLlXzD2gl-20" edge="1">
          <mxGeometry width="50" height="50" relative="1" as="geometry">
            <mxPoint x="950" y="720" as="sourcePoint" />
            <mxPoint x="750" y="720" as="targetPoint" />
            <Array as="points">
              <mxPoint x="780" y="720" />
            </Array>
          </mxGeometry>
        </mxCell>
        <mxCell id="sOwrhF51wG5BLlXzD2gl-32" value="" style="endArrow=classic;html=1;rounded=0;entryX=0.25;entryY=0;entryDx=0;entryDy=0;fillColor=#ffe6cc;strokeColor=#d79b00;strokeWidth=2;" parent="1" target="sOwrhF51wG5BLlXzD2gl-23" edge="1">
          <mxGeometry width="50" height="50" relative="1" as="geometry">
            <mxPoint x="951" y="720" as="sourcePoint" />
            <mxPoint x="990" y="700" as="targetPoint" />
          </mxGeometry>
        </mxCell>
        <mxCell id="sOwrhF51wG5BLlXzD2gl-33" value="" style="endArrow=classic;html=1;rounded=0;fillColor=#d5e8d4;strokeColor=#82b366;strokeWidth=2;exitX=0.504;exitY=-0.005;exitDx=0;exitDy=0;exitPerimeter=0;" parent="1" source="sOwrhF51wG5BLlXzD2gl-51" edge="1">
          <mxGeometry width="50" height="50" relative="1" as="geometry">
            <mxPoint x="950" y="720" as="sourcePoint" />
            <mxPoint x="980" y="740" as="targetPoint" />
            <Array as="points">
              <mxPoint x="950" y="720" />
              <mxPoint x="960" y="720" />
              <mxPoint x="980" y="720" />
            </Array>
          </mxGeometry>
        </mxCell>
        <mxCell id="sOwrhF51wG5BLlXzD2gl-34" value="" style="endArrow=classic;html=1;rounded=0;fillColor=#f8cecc;strokeColor=#b85450;entryX=0.5;entryY=0;entryDx=0;entryDy=0;strokeWidth=2;" parent="1" target="sOwrhF51wG5BLlXzD2gl-20" edge="1">
          <mxGeometry width="50" height="50" relative="1" as="geometry">
            <mxPoint x="1000" y="700" as="sourcePoint" />
            <mxPoint x="750" y="700" as="targetPoint" />
            <Array as="points">
              <mxPoint x="730" y="700" />
            </Array>
          </mxGeometry>
        </mxCell>
        <mxCell id="sOwrhF51wG5BLlXzD2gl-35" value="" style="endArrow=classic;html=1;rounded=0;entryX=0.5;entryY=0;entryDx=0;entryDy=0;fillColor=#ffe6cc;strokeColor=#d79b00;strokeWidth=2;" parent="1" edge="1">
          <mxGeometry width="50" height="50" relative="1" as="geometry">
            <mxPoint x="1001" y="700" as="sourcePoint" />
            <mxPoint x="1001" y="740" as="targetPoint" />
          </mxGeometry>
        </mxCell>
        <mxCell id="sOwrhF51wG5BLlXzD2gl-36" value="" style="endArrow=classic;html=1;rounded=0;fillColor=#d5e8d4;strokeColor=#82b366;entryX=0.647;entryY=0;entryDx=0;entryDy=0;entryPerimeter=0;strokeWidth=2;" parent="1" target="sOwrhF51wG5BLlXzD2gl-23" edge="1">
          <mxGeometry width="50" height="50" relative="1" as="geometry">
            <mxPoint x="1000" y="700" as="sourcePoint" />
            <mxPoint x="1030" y="737" as="targetPoint" />
            <Array as="points">
              <mxPoint x="1010" y="700" />
              <mxPoint x="1020" y="700" />
              <mxPoint x="1030" y="700" />
            </Array>
          </mxGeometry>
        </mxCell>
        <mxCell id="sOwrhF51wG5BLlXzD2gl-38" value="" style="endArrow=classic;html=1;rounded=0;fillColor=#f8cecc;strokeColor=#b85450;entryX=0.25;entryY=0;entryDx=0;entryDy=0;strokeWidth=2;" parent="1" target="sOwrhF51wG5BLlXzD2gl-20" edge="1">
          <mxGeometry width="50" height="50" relative="1" as="geometry">
            <mxPoint x="1050" y="670" as="sourcePoint" />
            <mxPoint x="830" y="670" as="targetPoint" />
            <Array as="points">
              <mxPoint x="680" y="670" />
            </Array>
          </mxGeometry>
        </mxCell>
        <mxCell id="sOwrhF51wG5BLlXzD2gl-41" value="" style="endArrow=classic;html=1;rounded=0;entryX=0.75;entryY=0;entryDx=0;entryDy=0;fillColor=#ffe6cc;strokeColor=#d79b00;strokeWidth=2;" parent="1" target="sOwrhF51wG5BLlXzD2gl-23" edge="1">
          <mxGeometry width="50" height="50" relative="1" as="geometry">
            <mxPoint x="1050" y="670" as="sourcePoint" />
            <mxPoint x="1130" y="740" as="targetPoint" />
          </mxGeometry>
        </mxCell>
        <mxCell id="sOwrhF51wG5BLlXzD2gl-42" value="" style="endArrow=classic;html=1;rounded=0;fillColor=#d5e8d4;strokeColor=#82b366;entryX=0.9;entryY=0;entryDx=0;entryDy=0;entryPerimeter=0;strokeWidth=2;" parent="1" target="sOwrhF51wG5BLlXzD2gl-23" edge="1">
          <mxGeometry width="50" height="50" relative="1" as="geometry">
            <mxPoint x="1050" y="670.5" as="sourcePoint" />
            <mxPoint x="1080" y="709.5" as="targetPoint" />
            <Array as="points">
              <mxPoint x="1060" y="670.5" />
              <mxPoint x="1070" y="670.5" />
              <mxPoint x="1080" y="670.5" />
            </Array>
          </mxGeometry>
        </mxCell>
        <mxCell id="sOwrhF51wG5BLlXzD2gl-43" value="0.9" style="text;html=1;align=center;verticalAlign=middle;resizable=0;points=[];autosize=1;strokeColor=none;fillColor=none;" parent="1" vertex="1">
          <mxGeometry x="1061" y="670" width="40" height="30" as="geometry" />
        </mxCell>
        <mxCell id="sOwrhF51wG5BLlXzD2gl-44" value="0.07" style="text;html=1;align=center;verticalAlign=middle;resizable=0;points=[];autosize=1;strokeColor=none;fillColor=none;" parent="1" vertex="1">
          <mxGeometry x="1021" y="670" width="50" height="30" as="geometry" />
        </mxCell>
        <mxCell id="sOwrhF51wG5BLlXzD2gl-45" value="0.6" style="text;html=1;align=center;verticalAlign=middle;resizable=0;points=[];autosize=1;strokeColor=none;fillColor=none;" parent="1" vertex="1">
          <mxGeometry x="1010" y="695" width="40" height="30" as="geometry" />
        </mxCell>
        <mxCell id="sOwrhF51wG5BLlXzD2gl-47" value="0.3" style="text;html=1;align=center;verticalAlign=middle;resizable=0;points=[];autosize=1;strokeColor=none;fillColor=none;" parent="1" vertex="1">
          <mxGeometry x="981" y="695" width="40" height="30" as="geometry" />
        </mxCell>
        <mxCell id="sOwrhF51wG5BLlXzD2gl-48" value="0.1" style="text;html=1;align=center;verticalAlign=middle;resizable=0;points=[];autosize=1;strokeColor=none;fillColor=none;" parent="1" vertex="1">
          <mxGeometry x="850" y="680" width="40" height="30" as="geometry" />
        </mxCell>
        <mxCell id="sOwrhF51wG5BLlXzD2gl-49" value="0.03" style="text;html=1;align=center;verticalAlign=middle;resizable=0;points=[];autosize=1;strokeColor=none;fillColor=none;" parent="1" vertex="1">
          <mxGeometry x="860" y="650" width="50" height="30" as="geometry" />
        </mxCell>
        <mxCell id="sOwrhF51wG5BLlXzD2gl-50" value="0.3" style="text;html=1;align=center;verticalAlign=middle;resizable=0;points=[];autosize=1;strokeColor=none;fillColor=none;" parent="1" vertex="1">
          <mxGeometry x="840" y="700" width="40" height="30" as="geometry" />
        </mxCell>
        <mxCell id="sOwrhF51wG5BLlXzD2gl-51" value="0.4" style="text;html=1;align=center;verticalAlign=middle;resizable=0;points=[];autosize=1;strokeColor=none;fillColor=none;" parent="1" vertex="1">
          <mxGeometry x="930" y="720" width="40" height="30" as="geometry" />
        </mxCell>
        <mxCell id="sOwrhF51wG5BLlXzD2gl-53" value="0.3" style="text;html=1;align=center;verticalAlign=middle;resizable=0;points=[];autosize=1;strokeColor=none;fillColor=none;" parent="1" vertex="1">
          <mxGeometry x="960" y="720" width="40" height="30" as="geometry" />
        </mxCell>
        <mxCell id="sOwrhF51wG5BLlXzD2gl-57" value="" style="edgeStyle=orthogonalEdgeStyle;rounded=0;orthogonalLoop=1;jettySize=auto;html=1;strokeWidth=2;fillColor=#ffe6cc;strokeColor=#d79b00;" parent="1" edge="1">
          <mxGeometry relative="1" as="geometry">
            <mxPoint x="730" y="890" as="sourcePoint" />
            <mxPoint x="730" y="940" as="targetPoint" />
          </mxGeometry>
        </mxCell>
        <mxCell id="sOwrhF51wG5BLlXzD2gl-59" style="edgeStyle=orthogonalEdgeStyle;rounded=0;orthogonalLoop=1;jettySize=auto;html=1;fillColor=#d5e8d4;strokeColor=#82b366;strokeWidth=2;" parent="1" edge="1">
          <mxGeometry relative="1" as="geometry">
            <mxPoint x="900" y="789.98" as="targetPoint" />
            <mxPoint x="860" y="790" as="sourcePoint" />
            <Array as="points">
              <mxPoint x="890" y="789.98" />
              <mxPoint x="890" y="789.98" />
            </Array>
          </mxGeometry>
        </mxCell>
        <mxCell id="sOwrhF51wG5BLlXzD2gl-60" value="0.5" style="text;html=1;align=center;verticalAlign=middle;resizable=0;points=[];autosize=1;strokeColor=none;fillColor=none;" parent="1" vertex="1">
          <mxGeometry x="710" y="850" width="40" height="30" as="geometry" />
        </mxCell>
        <mxCell id="sOwrhF51wG5BLlXzD2gl-61" value="0.5" style="text;html=1;align=center;verticalAlign=middle;resizable=0;points=[];autosize=1;strokeColor=none;fillColor=none;" parent="1" vertex="1">
          <mxGeometry x="825" y="770" width="40" height="30" as="geometry" />
        </mxCell>
        <mxCell id="sOwrhF51wG5BLlXzD2gl-68" value="1" style="text;html=1;align=center;verticalAlign=middle;resizable=0;points=[];autosize=1;strokeColor=none;fillColor=none;" parent="1" vertex="1">
          <mxGeometry x="991" y="860" width="30" height="30" as="geometry" />
        </mxCell>
        <mxCell id="jwr_EJtOq0DxzBWI8Z7X-1" value="0.1" style="text;html=1;align=center;verticalAlign=middle;resizable=0;points=[];autosize=1;strokeColor=none;fillColor=none;" parent="1" vertex="1">
          <mxGeometry x="425" y="250" width="40" height="30" as="geometry" />
        </mxCell>
        <mxCell id="_shEbpTUIyo-8CSlQiM0-63" style="edgeStyle=orthogonalEdgeStyle;rounded=0;orthogonalLoop=1;jettySize=auto;html=1;exitX=0.25;exitY=1;exitDx=0;exitDy=0;strokeWidth=2;fillColor=#d5e8d4;strokeColor=#82b366;" edge="1" parent="1">
          <mxGeometry relative="1" as="geometry">
            <mxPoint x="280" y="570" as="targetPoint" />
            <mxPoint x="150" y="460" as="sourcePoint" />
            <Array as="points">
              <mxPoint x="150" y="570" />
            </Array>
          </mxGeometry>
        </mxCell>
        <mxCell id="_shEbpTUIyo-8CSlQiM0-64" style="edgeStyle=orthogonalEdgeStyle;rounded=0;orthogonalLoop=1;jettySize=auto;html=1;exitX=0.75;exitY=1;exitDx=0;exitDy=0;strokeWidth=2;fillColor=#ffe6cc;strokeColor=#d79b00;" edge="1" parent="1" source="_shEbpTUIyo-8CSlQiM0-2">
          <mxGeometry relative="1" as="geometry">
            <mxPoint x="200" y="530" as="targetPoint" />
          </mxGeometry>
        </mxCell>
        <mxCell id="_shEbpTUIyo-8CSlQiM0-2" value="Sala przedporodowa" style="rounded=0;whiteSpace=wrap;html=1;fillColor=#f8cecc;strokeColor=#b85450;" vertex="1" parent="1">
          <mxGeometry x="110" y="410" width="120" height="60" as="geometry" />
        </mxCell>
        <mxCell id="_shEbpTUIyo-8CSlQiM0-4" style="edgeStyle=orthogonalEdgeStyle;rounded=0;orthogonalLoop=1;jettySize=auto;html=1;exitX=0.75;exitY=1;exitDx=0;exitDy=0;entryX=0.5;entryY=0;entryDx=0;entryDy=0;fillColor=#f8cecc;strokeColor=#b85450;strokeWidth=2;" edge="1" parent="1" source="_shEbpTUIyo-8CSlQiM0-3" target="whcsbTW-i5qFt0smelnw-5">
          <mxGeometry relative="1" as="geometry">
            <Array as="points">
              <mxPoint x="200" y="170" />
              <mxPoint x="340" y="170" />
            </Array>
          </mxGeometry>
        </mxCell>
        <mxCell id="_shEbpTUIyo-8CSlQiM0-3" value="IN" style="rounded=0;whiteSpace=wrap;html=1;fillColor=#b0e3e6;strokeColor=#0e8088;" vertex="1" parent="1">
          <mxGeometry x="110" y="60" width="120" height="60" as="geometry" />
        </mxCell>
        <mxCell id="_shEbpTUIyo-8CSlQiM0-9" value="" style="endArrow=classic;html=1;rounded=0;fillColor=#ffe6cc;strokeColor=#d79b00;strokeWidth=2;" edge="1" parent="1">
          <mxGeometry width="50" height="50" relative="1" as="geometry">
            <mxPoint x="370" y="360" as="sourcePoint" />
            <mxPoint x="200" y="410" as="targetPoint" />
            <Array as="points">
              <mxPoint x="290" y="360" />
              <mxPoint x="200" y="360" />
              <mxPoint x="200" y="380" />
            </Array>
          </mxGeometry>
        </mxCell>
        <mxCell id="_shEbpTUIyo-8CSlQiM0-10" value="0.4" style="text;html=1;align=center;verticalAlign=middle;resizable=0;points=[];autosize=1;strokeColor=none;fillColor=none;" vertex="1" parent="1">
          <mxGeometry x="220" y="340" width="40" height="30" as="geometry" />
        </mxCell>
        <mxCell id="_shEbpTUIyo-8CSlQiM0-16" value="FIFO" style="text;html=1;align=center;verticalAlign=middle;resizable=0;points=[];autosize=1;strokeColor=none;fillColor=none;" vertex="1" parent="1">
          <mxGeometry x="180" y="410" width="50" height="30" as="geometry" />
        </mxCell>
        <mxCell id="_shEbpTUIyo-8CSlQiM0-29" value="1" style="text;html=1;align=center;verticalAlign=middle;resizable=0;points=[];autosize=1;strokeColor=none;fillColor=none;" vertex="1" parent="1">
          <mxGeometry x="930" y="860" width="30" height="30" as="geometry" />
        </mxCell>
        <mxCell id="_shEbpTUIyo-8CSlQiM0-66" value="" style="endArrow=classic;html=1;rounded=0;entryX=-0.015;entryY=0.669;entryDx=0;entryDy=0;entryPerimeter=0;fillColor=#ffe6cc;strokeColor=#d79b00;strokeWidth=2;" edge="1" parent="1">
          <mxGeometry width="50" height="50" relative="1" as="geometry">
            <mxPoint x="200" y="529.77" as="sourcePoint" />
            <mxPoint x="280" y="529.77" as="targetPoint" />
            <Array as="points">
              <mxPoint x="200" y="529.77" />
            </Array>
          </mxGeometry>
        </mxCell>
        <mxCell id="_shEbpTUIyo-8CSlQiM0-67" value="" style="endArrow=classic;html=1;rounded=0;entryX=-0.015;entryY=0.669;entryDx=0;entryDy=0;entryPerimeter=0;strokeWidth=2;fillColor=#d5e8d4;strokeColor=#82b366;" edge="1" parent="1">
          <mxGeometry width="50" height="50" relative="1" as="geometry">
            <mxPoint x="200" y="550" as="sourcePoint" />
            <mxPoint x="280" y="550" as="targetPoint" />
            <Array as="points">
              <mxPoint x="200" y="530" />
              <mxPoint x="200" y="550" />
              <mxPoint x="240" y="550" />
            </Array>
          </mxGeometry>
        </mxCell>
        <mxCell id="_shEbpTUIyo-8CSlQiM0-70" value="1" style="text;html=1;align=center;verticalAlign=middle;resizable=0;points=[];autosize=1;strokeColor=none;fillColor=none;" vertex="1" parent="1">
          <mxGeometry x="140" y="510" width="30" height="30" as="geometry" />
        </mxCell>
        <mxCell id="_shEbpTUIyo-8CSlQiM0-72" value="0.5" style="text;html=1;align=center;verticalAlign=middle;resizable=0;points=[];autosize=1;strokeColor=none;fillColor=none;" vertex="1" parent="1">
          <mxGeometry x="220" y="510" width="40" height="30" as="geometry" />
        </mxCell>
        <mxCell id="_shEbpTUIyo-8CSlQiM0-73" value="0.5" style="text;html=1;align=center;verticalAlign=middle;resizable=0;points=[];autosize=1;strokeColor=none;fillColor=none;" vertex="1" parent="1">
          <mxGeometry x="220" y="530" width="40" height="30" as="geometry" />
        </mxCell>
        <mxCell id="_shEbpTUIyo-8CSlQiM0-77" value="" style="endArrow=classic;html=1;rounded=0;entryX=0.397;entryY=-0.01;entryDx=0;entryDy=0;entryPerimeter=0;strokeWidth=2;fillColor=#f8cecc;strokeColor=#b85450;" edge="1" parent="1" target="whcsbTW-i5qFt0smelnw-47">
          <mxGeometry width="50" height="50" relative="1" as="geometry">
            <mxPoint x="200" y="170" as="sourcePoint" />
            <mxPoint x="200" y="190" as="targetPoint" />
            <Array as="points">
              <mxPoint x="200" y="180" />
            </Array>
          </mxGeometry>
        </mxCell>
        <mxCell id="_shEbpTUIyo-8CSlQiM0-78" value="0.8" style="text;html=1;align=center;verticalAlign=middle;resizable=0;points=[];autosize=1;strokeColor=none;fillColor=none;" vertex="1" parent="1">
          <mxGeometry x="255" y="150" width="40" height="30" as="geometry" />
        </mxCell>
        <mxCell id="_shEbpTUIyo-8CSlQiM0-79" value="0.2" style="text;html=1;align=center;verticalAlign=middle;resizable=0;points=[];autosize=1;strokeColor=none;fillColor=none;" vertex="1" parent="1">
          <mxGeometry x="195" y="170" width="40" height="30" as="geometry" />
        </mxCell>
        <mxCell id="_shEbpTUIyo-8CSlQiM0-80" value="" style="endArrow=classic;html=1;rounded=0;entryX=0.25;entryY=0;entryDx=0;entryDy=0;strokeWidth=2;fillColor=#d5e8d4;strokeColor=#82b366;" edge="1" parent="1" target="whcsbTW-i5qFt0smelnw-9">
          <mxGeometry width="50" height="50" relative="1" as="geometry">
            <mxPoint x="310" y="330" as="sourcePoint" />
            <mxPoint x="270" y="450" as="targetPoint" />
            <Array as="points">
              <mxPoint x="310" y="420" />
            </Array>
          </mxGeometry>
        </mxCell>
        <mxCell id="_shEbpTUIyo-8CSlQiM0-81" value="0.25" style="text;html=1;align=center;verticalAlign=middle;resizable=0;points=[];autosize=1;strokeColor=none;fillColor=none;" vertex="1" parent="1">
          <mxGeometry x="270" y="410" width="50" height="30" as="geometry" />
        </mxCell>
        <mxCell id="_shEbpTUIyo-8CSlQiM0-85" value="" style="endArrow=classic;html=1;rounded=0;entryX=0;entryY=0.25;entryDx=0;entryDy=0;strokeWidth=2;fillColor=#f8cecc;strokeColor=#b85450;" edge="1" parent="1" target="whcsbTW-i5qFt0smelnw-5">
          <mxGeometry width="50" height="50" relative="1" as="geometry">
            <mxPoint x="200" y="260" as="sourcePoint" />
            <mxPoint x="200" y="280" as="targetPoint" />
            <Array as="points">
              <mxPoint x="200" y="275" />
            </Array>
          </mxGeometry>
        </mxCell>
      </root>
    </mxGraphModel>
  </diagram>
</mxfile>
